<svg xmlns="http://www.w3.org/2000/svg" viewBox="0 0 64 64" fill="none">
  <rect width="64" height="64" rx="14" fill="white"/>
  <g fill="#F35916">
    <!-- Top-left finder -->
    <rect x="8" y="8" width="16" height="16" rx="3"/>
    <rect x="11" y="11" width="10" height="10" rx="1.5" fill="white"/>
    <rect x="14" y="14" width="4" height="4" rx="0.5"/>
    <!-- Top-right finder -->
    <rect x="40" y="8" width="16" height="16" rx="3"/>
    <rect x="43" y="11" width="10" height="10" rx="1.5" fill="white"/>
    <rect x="46" y="14" width="4" height="4" rx="0.5"/>
    <!-- Bottom-left finder -->
    <rect x="8" y="40" width="16" height="16" rx="3"/>
    <rect x="11" y="43" width="10" height="10" rx="1.5" fill="white"/>
    <rect x="14" y="46" width="4" height="4" rx="0.5"/>

    <!-- Horizontal timing -->
    <rect x="26" y="14" width="3" height="3" rx="0.5"/>
    <rect x="34" y="14" width="3" height="3" rx="0.5"/>
    <!-- Vertical timing -->
    <rect x="14" y="26" width="3" height="3" rx="0.5"/>
    <rect x="14" y="34" width="3" height="3" rx="0.5"/>

    <!-- Alignment pattern -->
    <rect x="47" y="47" width="8" height="8" rx="2"/>
    <rect x="49" y="49" width="4" height="4" rx="1" fill="white"/>
    <rect x="50.5" y="50.5" width="1.5" height="1.5" rx="0.3"/>

    <!-- Dense data modules -->
    <rect x="30" y="22" width="3" height="3" rx="0.5"/>
    <rect x="38" y="22" width="3" height="3" rx="0.5"/>
    <rect x="26" y="26" width="3" height="3" rx="0.5"/>
    <rect x="34" y="26" width="3" height="3" rx="0.5"/>
    <rect x="42" y="26" width="3" height="3" rx="0.5"/>
    <rect x="50" y="26" width="3" height="3" rx="0.5"/>
    <rect x="22" y="30" width="3" height="3" rx="0.5"/>
    <rect x="30" y="30" width="3" height="3" rx="0.5"/>
    <rect x="38" y="30" width="3" height="3" rx="0.5"/>
    <rect x="46" y="30" width="3" height="3" rx="0.5"/>
    <rect x="54" y="30" width="3" height="3" rx="0.5"/>
    <rect x="26" y="34" width="3" height="3" rx="0.5"/>
    <rect x="30" y="34" width="3" height="3" rx="0.5"/>
    <rect x="42" y="34" width="3" height="3" rx="0.5"/>
    <rect x="50" y="34" width="3" height="3" rx="0.5"/>
    <rect x="54" y="34" width="3" height="3" rx="0.5"/>
    <rect x="26" y="38" width="3" height="3" rx="0.5"/>
    <rect x="34" y="38" width="3" height="3" rx="0.5"/>
    <rect x="38" y="38" width="3" height="3" rx="0.5"/>
    <rect x="54" y="38" width="3" height="3" rx="0.5"/>
    <rect x="30" y="42" width="3" height="3" rx="0.5"/>
    <rect x="34" y="42" width="3" height="3" rx="0.5"/>
    <rect x="42" y="42" width="3" height="3" rx="0.5"/>
    <rect x="54" y="42" width="3" height="3" rx="0.5"/>
    <rect x="26" y="46" width="3" height="3" rx="0.5"/>
    <rect x="30" y="46" width="3" height="3" rx="0.5"/>
    <rect x="34" y="46" width="3" height="3" rx="0.5"/>
    <rect x="42" y="46" width="3" height="3" rx="0.5"/>
    <rect x="26" y="50" width="3" height="3" rx="0.5"/>
    <rect x="30" y="50" width="3" height="3" rx="0.5"/>
    <rect x="38" y="50" width="3" height="3" rx="0.5"/>
    <rect x="26" y="54" width="3" height="3" rx="0.5"/>
    <rect x="34" y="54" width="3" height="3" rx="0.5"/>
    <rect x="42" y="54" width="3" height="3" rx="0.5"/>
    <rect x="54" y="54" width="3" height="3" rx="0.5"/>
  </g>
</svg>
