<svg xmlns="http://www.w3.org/2000/svg" viewBox="0 0 64 64" fill="none">
  <!-- Background — warm cream -->
  <rect width="64" height="64" rx="14" fill="#F5F0E8"/>

  <!-- Mini QR finder patterns -->
  <g fill="#A0392D">
    <!-- Top-left finder -->
    <rect x="10" y="10" width="14" height="14" rx="1.5"/>
    <rect x="13" y="13" width="8" height="8" rx="1" fill="#F5F0E8"/>
    <rect x="15" y="15" width="4" height="4" rx="0.5"/>

    <!-- Top-right finder -->
    <rect x="40" y="10" width="14" height="14" rx="1.5"/>
    <rect x="43" y="13" width="8" height="8" rx="1" fill="#F5F0E8"/>
    <rect x="45" y="15" width="4" height="4" rx="0.5"/>

    <!-- Bottom-left finder -->
    <rect x="10" y="40" width="14" height="14" rx="1.5"/>
    <rect x="13" y="43" width="8" height="8" rx="1" fill="#F5F0E8"/>
    <rect x="15" y="45" width="4" height="4" rx="0.5"/>

    <!-- Data dots -->
    <rect x="28" y="12" width="3.5" height="3.5" rx="0.5"/>
    <rect x="33" y="14" width="3.5" height="3.5" rx="0.5"/>
    <rect x="28" y="20" width="3.5" height="3.5" rx="0.5"/>
    <rect x="14" y="28" width="3.5" height="3.5" rx="0.5"/>
    <rect x="21" y="28" width="3.5" height="3.5" rx="0.5"/>
    <rect x="28" y="28" width="3.5" height="3.5" rx="0.5"/>
    <rect x="35" y="28" width="3.5" height="3.5" rx="0.5"/>
    <rect x="42" y="28" width="3.5" height="3.5" rx="0.5"/>
    <rect x="49" y="28" width="3.5" height="3.5" rx="0.5"/>
    <rect x="35" y="20" width="3.5" height="3.5" rx="0.5"/>
    <rect x="42" y="35" width="3.5" height="3.5" rx="0.5"/>
    <rect x="49" y="38" width="3.5" height="3.5" rx="0.5"/>
    <rect x="35" y="42" width="3.5" height="3.5" rx="0.5"/>
    <rect x="42" y="46" width="3.5" height="3.5" rx="0.5"/>
    <rect x="49" y="44" width="3.5" height="3.5" rx="0.5"/>
    <rect x="28" y="36" width="3.5" height="3.5" rx="0.5"/>
    <rect x="49" y="20" width="3.5" height="3.5" rx="0.5"/>
  </g>
</svg>
