<svg xmlns="http://www.w3.org/2000/svg" viewBox="0 0 64 64" fill="none">
  <rect width="64" height="64" rx="14" fill="white"/>
  <g fill="#F35916">
    <!-- Top-left finder -->
    <rect x="8" y="8" width="16" height="16" rx="3"/>
    <rect x="11" y="11" width="10" height="10" rx="1.5" fill="white"/>
    <rect x="14" y="14" width="4" height="4" rx="0.5"/>
    <!-- Top-right finder -->
    <rect x="40" y="8" width="16" height="16" rx="3"/>
    <rect x="43" y="11" width="10" height="10" rx="1.5" fill="white"/>
    <rect x="46" y="14" width="4" height="4" rx="0.5"/>
    <!-- Bottom-left finder -->
    <rect x="8" y="40" width="16" height="16" rx="3"/>
    <rect x="11" y="43" width="10" height="10" rx="1.5" fill="white"/>
    <rect x="14" y="46" width="4" height="4" rx="0.5"/>
    <!-- Data dots -->
    <rect x="28" y="10" width="3.5" height="3.5" rx="0.5"/>
    <rect x="34" y="14" width="3.5" height="3.5" rx="0.5"/>
    <rect x="28" y="20" width="3.5" height="3.5" rx="0.5"/>
    <rect x="14" y="28" width="3.5" height="3.5" rx="0.5"/>
    <rect x="22" y="28" width="3.5" height="3.5" rx="0.5"/>
    <rect x="30" y="28" width="3.5" height="3.5" rx="0.5"/>
    <rect x="38" y="28" width="3.5" height="3.5" rx="0.5"/>
    <rect x="46" y="28" width="3.5" height="3.5" rx="0.5"/>
    <rect x="38" y="20" width="3.5" height="3.5" rx="0.5"/>
    <rect x="34" y="38" width="3.5" height="3.5" rx="0.5"/>
    <rect x="42" y="38" width="3.5" height="3.5" rx="0.5"/>
    <rect x="50" y="38" width="3.5" height="3.5" rx="0.5"/>
    <rect x="38" y="46" width="3.5" height="3.5" rx="0.5"/>
    <rect x="46" y="44" width="3.5" height="3.5" rx="0.5"/>
    <rect x="50" y="50" width="3.5" height="3.5" rx="0.5"/>
  </g>
</svg>
