<svg xmlns="http://www.w3.org/2000/svg" viewBox="0 0 256 256" fill="none">
  <!-- QR-style icon — dense data pattern, transparent bg, app primary orange -->
  <g fill="#F35916">
    <!-- Top-left finder -->
    <rect x="20" y="20" width="56" height="56" rx="8"/>
    <rect x="32" y="32" width="32" height="32" rx="4" fill="white"/>
    <rect x="40" y="40" width="16" height="16" rx="2"/>
    <!-- Top-right finder -->
    <rect x="180" y="20" width="56" height="56" rx="8"/>
    <rect x="192" y="32" width="32" height="32" rx="4" fill="white"/>
    <rect x="200" y="40" width="16" height="16" rx="2"/>
    <!-- Bottom-left finder -->
    <rect x="20" y="180" width="56" height="56" rx="8"/>
    <rect x="32" y="192" width="32" height="32" rx="4" fill="white"/>
    <rect x="40" y="200" width="16" height="16" rx="2"/>

    <!-- Horizontal timing strip -->
    <rect x="88" y="40" width="12" height="12" rx="1.5"/>
    <rect x="112" y="40" width="12" height="12" rx="1.5"/>
    <rect x="136" y="40" width="12" height="12" rx="1.5"/>
    <rect x="160" y="40" width="12" height="12" rx="1.5"/>
    <!-- Vertical timing strip -->
    <rect x="40" y="88" width="12" height="12" rx="1.5"/>
    <rect x="40" y="112" width="12" height="12" rx="1.5"/>
    <rect x="40" y="136" width="12" height="12" rx="1.5"/>
    <rect x="40" y="160" width="12" height="12" rx="1.5"/>

    <!-- Alignment pattern (bottom-right) -->
    <rect x="192" y="192" width="28" height="28" rx="5"/>
    <rect x="198" y="198" width="16" height="16" rx="3" fill="white"/>
    <rect x="203" y="203" width="6" height="6" rx="1"/>

    <!-- Data modules — dense grid pattern -->
    <!-- y=88 -->
    <rect x="88" y="88" width="12" height="12" rx="1.5"/>
    <rect x="112" y="88" width="12" height="12" rx="1.5"/>
    <rect x="124" y="88" width="12" height="12" rx="1.5"/>
    <rect x="148" y="88" width="12" height="12" rx="1.5"/>
    <rect x="172" y="88" width="12" height="12" rx="1.5"/>
    <rect x="196" y="88" width="12" height="12" rx="1.5"/>
    <rect x="220" y="88" width="12" height="12" rx="1.5"/>
    <!-- y=100 -->
    <rect x="100" y="100" width="12" height="12" rx="1.5"/>
    <rect x="124" y="100" width="12" height="12" rx="1.5"/>
    <rect x="136" y="100" width="12" height="12" rx="1.5"/>
    <rect x="160" y="100" width="12" height="12" rx="1.5"/>
    <rect x="184" y="100" width="12" height="12" rx="1.5"/>
    <rect x="208" y="100" width="12" height="12" rx="1.5"/>
    <!-- y=112 -->
    <rect x="88" y="112" width="12" height="12" rx="1.5"/>
    <rect x="100" y="112" width="12" height="12" rx="1.5"/>
    <rect x="124" y="112" width="12" height="12" rx="1.5"/>
    <rect x="148" y="112" width="12" height="12" rx="1.5"/>
    <rect x="160" y="112" width="12" height="12" rx="1.5"/>
    <rect x="184" y="112" width="12" height="12" rx="1.5"/>
    <rect x="220" y="112" width="12" height="12" rx="1.5"/>
    <!-- y=124 -->
    <rect x="100" y="124" width="12" height="12" rx="1.5"/>
    <rect x="112" y="124" width="12" height="12" rx="1.5"/>
    <rect x="136" y="124" width="12" height="12" rx="1.5"/>
    <rect x="160" y="124" width="12" height="12" rx="1.5"/>
    <rect x="172" y="124" width="12" height="12" rx="1.5"/>
    <rect x="196" y="124" width="12" height="12" rx="1.5"/>
    <rect x="220" y="124" width="12" height="12" rx="1.5"/>
    <!-- y=136 -->
    <rect x="88" y="136" width="12" height="12" rx="1.5"/>
    <rect x="112" y="136" width="12" height="12" rx="1.5"/>
    <rect x="124" y="136" width="12" height="12" rx="1.5"/>
    <rect x="148" y="136" width="12" height="12" rx="1.5"/>
    <rect x="172" y="136" width="12" height="12" rx="1.5"/>
    <rect x="184" y="136" width="12" height="12" rx="1.5"/>
    <rect x="208" y="136" width="12" height="12" rx="1.5"/>
    <!-- y=148 -->
    <rect x="100" y="148" width="12" height="12" rx="1.5"/>
    <rect x="124" y="148" width="12" height="12" rx="1.5"/>
    <rect x="136" y="148" width="12" height="12" rx="1.5"/>
    <rect x="148" y="148" width="12" height="12" rx="1.5"/>
    <rect x="172" y="148" width="12" height="12" rx="1.5"/>
    <rect x="208" y="148" width="12" height="12" rx="1.5"/>
    <rect x="220" y="148" width="12" height="12" rx="1.5"/>
    <!-- y=160 -->
    <rect x="88" y="160" width="12" height="12" rx="1.5"/>
    <rect x="112" y="160" width="12" height="12" rx="1.5"/>
    <rect x="136" y="160" width="12" height="12" rx="1.5"/>
    <rect x="148" y="160" width="12" height="12" rx="1.5"/>
    <rect x="184" y="160" width="12" height="12" rx="1.5"/>
    <rect x="196" y="160" width="12" height="12" rx="1.5"/>
    <rect x="220" y="160" width="12" height="12" rx="1.5"/>
    <!-- y=172 -->
    <rect x="88" y="172" width="12" height="12" rx="1.5"/>
    <rect x="100" y="172" width="12" height="12" rx="1.5"/>
    <rect x="124" y="172" width="12" height="12" rx="1.5"/>
    <rect x="148" y="172" width="12" height="12" rx="1.5"/>
    <rect x="160" y="172" width="12" height="12" rx="1.5"/>
    <rect x="184" y="172" width="12" height="12" rx="1.5"/>
    <rect x="220" y="172" width="12" height="12" rx="1.5"/>
    <!-- y=184 -->
    <rect x="100" y="184" width="12" height="12" rx="1.5"/>
    <rect x="112" y="184" width="12" height="12" rx="1.5"/>
    <rect x="136" y="184" width="12" height="12" rx="1.5"/>
    <rect x="148" y="184" width="12" height="12" rx="1.5"/>
    <rect x="172" y="184" width="12" height="12" rx="1.5"/>
    <!-- y=196 -->
    <rect x="88" y="196" width="12" height="12" rx="1.5"/>
    <rect x="112" y="196" width="12" height="12" rx="1.5"/>
    <rect x="124" y="196" width="12" height="12" rx="1.5"/>
    <rect x="148" y="196" width="12" height="12" rx="1.5"/>
    <rect x="172" y="196" width="12" height="12" rx="1.5"/>
    <!-- y=208 -->
    <rect x="100" y="208" width="12" height="12" rx="1.5"/>
    <rect x="124" y="208" width="12" height="12" rx="1.5"/>
    <rect x="136" y="208" width="12" height="12" rx="1.5"/>
    <rect x="160" y="208" width="12" height="12" rx="1.5"/>
    <rect x="184" y="208" width="12" height="12" rx="1.5"/>
    <rect x="220" y="208" width="12" height="12" rx="1.5"/>
    <!-- y=220 -->
    <rect x="88" y="220" width="12" height="12" rx="1.5"/>
    <rect x="112" y="220" width="12" height="12" rx="1.5"/>
    <rect x="136" y="220" width="12" height="12" rx="1.5"/>
    <rect x="148" y="220" width="12" height="12" rx="1.5"/>
    <rect x="172" y="220" width="12" height="12" rx="1.5"/>
    <rect x="220" y="220" width="12" height="12" rx="1.5"/>
  </g>
</svg>
