<svg xmlns="http://www.w3.org/2000/svg" viewBox="0 0 256 256" fill="none">
  <!-- QR-style icon only — no text, transparent background, app primary orange -->
  <g fill="#F35916">
    <!-- Top-left finder -->
    <rect x="20" y="20" width="56" height="56" rx="8"/>
    <rect x="32" y="32" width="32" height="32" rx="4" fill="white"/>
    <rect x="40" y="40" width="16" height="16" rx="2"/>

    <!-- Top-right finder -->
    <rect x="180" y="20" width="56" height="56" rx="8"/>
    <rect x="192" y="32" width="32" height="32" rx="4" fill="white"/>
    <rect x="200" y="40" width="16" height="16" rx="2"/>

    <!-- Bottom-left finder -->
    <rect x="20" y="180" width="56" height="56" rx="8"/>
    <rect x="32" y="192" width="32" height="32" rx="4" fill="white"/>
    <rect x="40" y="200" width="16" height="16" rx="2"/>

    <!-- Timing strips -->
    <rect x="88" y="40" width="12" height="12" rx="1.5"/>
    <rect x="112" y="40" width="12" height="12" rx="1.5"/>
    <rect x="136" y="40" width="12" height="12" rx="1.5"/>
    <rect x="160" y="40" width="12" height="12" rx="1.5"/>
    <rect x="40" y="88" width="12" height="12" rx="1.5"/>
    <rect x="40" y="112" width="12" height="12" rx="1.5"/>
    <rect x="40" y="136" width="12" height="12" rx="1.5"/>
    <rect x="40" y="160" width="12" height="12" rx="1.5"/>

    <!-- Data modules -->
    <rect x="88" y="88" width="12" height="12" rx="1.5"/>
    <rect x="112" y="88" width="12" height="12" rx="1.5"/>
    <rect x="156" y="88" width="12" height="12" rx="1.5"/>
    <rect x="88" y="112" width="12" height="12" rx="1.5"/>
    <rect x="132" y="108" width="12" height="12" rx="1.5"/>
    <rect x="160" y="112" width="12" height="12" rx="1.5"/>
    <rect x="200" y="88" width="12" height="12" rx="1.5"/>
    <rect x="112" y="132" width="12" height="12" rx="1.5"/>
    <rect x="140" y="136" width="12" height="12" rx="1.5"/>
    <rect x="88" y="156" width="12" height="12" rx="1.5"/>
    <rect x="120" y="160" width="12" height="12" rx="1.5"/>
    <rect x="156" y="156" width="12" height="12" rx="1.5"/>
    <rect x="200" y="108" width="12" height="12" rx="1.5"/>
    <rect x="224" y="88" width="12" height="12" rx="1.5"/>
    <rect x="200" y="136" width="12" height="12" rx="1.5"/>
    <rect x="224" y="132" width="12" height="12" rx="1.5"/>
    <rect x="200" y="160" width="12" height="12" rx="1.5"/>
    <rect x="136" y="200" width="12" height="12" rx="1.5"/>
    <rect x="160" y="192" width="12" height="12" rx="1.5"/>
    <rect x="88" y="200" width="12" height="12" rx="1.5"/>
    <rect x="112" y="196" width="12" height="12" rx="1.5"/>
    <rect x="160" y="220" width="12" height="12" rx="1.5"/>
    <rect x="188" y="200" width="12" height="12" rx="1.5"/>
    <rect x="220" y="192" width="12" height="12" rx="1.5"/>
    <rect x="196" y="224" width="12" height="12" rx="1.5"/>
    <rect x="224" y="220" width="12" height="12" rx="1.5"/>
  </g>
</svg>
